<mxfile host="app.diagrams.net" modified="2021-05-26T16:33:54.970Z" agent="5.0 (Windows NT 10.0; Win64; x64) AppleWebKit/537.36 (KHTML, like Gecko) Chrome/90.0.4430.212 Safari/537.36" etag="dayjWudYlSQI4QxqpRB9" version="14.7.0" type="github" pages="3">
  <diagram id="hXXbRuIzrpHondZazMKG" name="Page-1">
    <mxGraphModel dx="1038" dy="523" grid="1" gridSize="10" guides="1" tooltips="1" connect="1" arrows="1" fold="1" page="1" pageScale="1" pageWidth="850" pageHeight="1100" math="0" shadow="0">
      <root>
        <mxCell id="0" />
        <mxCell id="1" parent="0" />
        <mxCell id="wmfKHuDYiVW8URMYETFL-3" value="" style="edgeStyle=orthogonalEdgeStyle;rounded=0;orthogonalLoop=1;jettySize=auto;html=1;" parent="1" source="wmfKHuDYiVW8URMYETFL-1" target="wmfKHuDYiVW8URMYETFL-2" edge="1">
          <mxGeometry relative="1" as="geometry" />
        </mxCell>
        <mxCell id="wmfKHuDYiVW8URMYETFL-1" value="Start" style="ellipse;whiteSpace=wrap;html=1;" parent="1" vertex="1">
          <mxGeometry x="310" y="40" width="110" height="50" as="geometry" />
        </mxCell>
        <mxCell id="wmfKHuDYiVW8URMYETFL-5" value="" style="edgeStyle=orthogonalEdgeStyle;rounded=0;orthogonalLoop=1;jettySize=auto;html=1;" parent="1" source="wmfKHuDYiVW8URMYETFL-2" target="wmfKHuDYiVW8URMYETFL-4" edge="1">
          <mxGeometry relative="1" as="geometry" />
        </mxCell>
        <mxCell id="wmfKHuDYiVW8URMYETFL-2" value="a,n,x" style="shape=parallelogram;perimeter=parallelogramPerimeter;whiteSpace=wrap;html=1;fixedSize=1;" parent="1" vertex="1">
          <mxGeometry x="305" y="130" width="120" height="50" as="geometry" />
        </mxCell>
        <mxCell id="wmfKHuDYiVW8URMYETFL-7" value="" style="edgeStyle=orthogonalEdgeStyle;rounded=0;orthogonalLoop=1;jettySize=auto;html=1;" parent="1" source="wmfKHuDYiVW8URMYETFL-4" target="wmfKHuDYiVW8URMYETFL-6" edge="1">
          <mxGeometry relative="1" as="geometry" />
        </mxCell>
        <mxCell id="wmfKHuDYiVW8URMYETFL-4" value="x=a^n" style="shape=parallelogram;perimeter=parallelogramPerimeter;whiteSpace=wrap;html=1;fixedSize=1;" parent="1" vertex="1">
          <mxGeometry x="302" y="230" width="125" height="50" as="geometry" />
        </mxCell>
        <mxCell id="wmfKHuDYiVW8URMYETFL-9" value="" style="edgeStyle=orthogonalEdgeStyle;rounded=0;orthogonalLoop=1;jettySize=auto;html=1;" parent="1" source="wmfKHuDYiVW8URMYETFL-6" target="wmfKHuDYiVW8URMYETFL-8" edge="1">
          <mxGeometry relative="1" as="geometry" />
        </mxCell>
        <mxCell id="wmfKHuDYiVW8URMYETFL-6" value="Print a" style="whiteSpace=wrap;html=1;" parent="1" vertex="1">
          <mxGeometry x="305" y="340" width="120" height="60" as="geometry" />
        </mxCell>
        <mxCell id="wmfKHuDYiVW8URMYETFL-8" value="End" style="ellipse;whiteSpace=wrap;html=1;" parent="1" vertex="1">
          <mxGeometry x="305" y="480" width="120" height="60" as="geometry" />
        </mxCell>
        <mxCell id="wmfKHuDYiVW8URMYETFL-10" value="&lt;h1&gt;&lt;span style=&quot;color: rgb(36 , 41 , 46) ; font-family: , &amp;#34;blinkmacsystemfont&amp;#34; , &amp;#34;segoe ui&amp;#34; , &amp;#34;helvetica&amp;#34; , &amp;#34;arial&amp;#34; , sans-serif , &amp;#34;apple color emoji&amp;#34; , &amp;#34;segoe ui emoji&amp;#34; ; font-size: 16px ; font-weight: 400 ; background-color: rgb(255 , 255 , 255)&quot;&gt;Ədədin istənilən qüvvətini tapan alqoritmi qurmaq.&lt;/span&gt;&lt;br&gt;&lt;/h1&gt;" style="text;html=1;strokeColor=none;fillColor=none;spacing=5;spacingTop=-20;whiteSpace=wrap;overflow=hidden;rounded=0;" parent="1" vertex="1">
          <mxGeometry x="40" y="30" width="220" height="120" as="geometry" />
        </mxCell>
      </root>
    </mxGraphModel>
  </diagram>
  <diagram id="s98xAC4Ywt2KTlbchQeZ" name="Page-2">
    <mxGraphModel dx="1038" dy="523" grid="1" gridSize="10" guides="1" tooltips="1" connect="1" arrows="1" fold="1" page="1" pageScale="1" pageWidth="850" pageHeight="1100" math="0" shadow="0">
      <root>
        <mxCell id="uh2FKYv2l3oiZ6gad8Yb-0" />
        <mxCell id="uh2FKYv2l3oiZ6gad8Yb-1" parent="uh2FKYv2l3oiZ6gad8Yb-0" />
        <mxCell id="uh2FKYv2l3oiZ6gad8Yb-2" value="&lt;h1&gt;&lt;span style=&quot;color: rgb(36 , 41 , 46) ; font-size: 16px ; background-color: rgb(255 , 255 , 255)&quot;&gt;Array-də(minimum 5 element olsun) cüt ədədlərlə tək ədədlərin fərqini tapan algorithmi qurun;&lt;/span&gt;&lt;br&gt;&lt;/h1&gt;" style="text;html=1;strokeColor=none;fillColor=none;spacing=5;spacingTop=-20;whiteSpace=wrap;overflow=hidden;rounded=0;" parent="uh2FKYv2l3oiZ6gad8Yb-1" vertex="1">
          <mxGeometry x="20" y="10" width="280" height="120" as="geometry" />
        </mxCell>
        <mxCell id="uh2FKYv2l3oiZ6gad8Yb-5" value="" style="edgeStyle=orthogonalEdgeStyle;rounded=0;orthogonalLoop=1;jettySize=auto;html=1;" parent="uh2FKYv2l3oiZ6gad8Yb-1" source="uh2FKYv2l3oiZ6gad8Yb-3" target="uh2FKYv2l3oiZ6gad8Yb-4" edge="1">
          <mxGeometry relative="1" as="geometry" />
        </mxCell>
        <mxCell id="uh2FKYv2l3oiZ6gad8Yb-3" value="Start" style="ellipse;whiteSpace=wrap;html=1;" parent="uh2FKYv2l3oiZ6gad8Yb-1" vertex="1">
          <mxGeometry x="330" y="30" width="120" height="80" as="geometry" />
        </mxCell>
        <mxCell id="uh2FKYv2l3oiZ6gad8Yb-7" value="" style="edgeStyle=orthogonalEdgeStyle;rounded=0;orthogonalLoop=1;jettySize=auto;html=1;" parent="uh2FKYv2l3oiZ6gad8Yb-1" source="uh2FKYv2l3oiZ6gad8Yb-4" target="uh2FKYv2l3oiZ6gad8Yb-6" edge="1">
          <mxGeometry relative="1" as="geometry" />
        </mxCell>
        <mxCell id="uh2FKYv2l3oiZ6gad8Yb-4" value="c={2,3,4,5,6}&lt;br&gt;a,b&lt;br&gt;i++" style="shape=parallelogram;perimeter=parallelogramPerimeter;whiteSpace=wrap;html=1;fixedSize=1;" parent="uh2FKYv2l3oiZ6gad8Yb-1" vertex="1">
          <mxGeometry x="330" y="160" width="120" height="60" as="geometry" />
        </mxCell>
        <mxCell id="A2aTkkkpEwi9YPG0wWU6-1" value="" style="edgeStyle=orthogonalEdgeStyle;rounded=0;orthogonalLoop=1;jettySize=auto;html=1;" parent="uh2FKYv2l3oiZ6gad8Yb-1" source="uh2FKYv2l3oiZ6gad8Yb-6" target="A2aTkkkpEwi9YPG0wWU6-0" edge="1">
          <mxGeometry relative="1" as="geometry" />
        </mxCell>
        <mxCell id="A2aTkkkpEwi9YPG0wWU6-10" value="" style="edgeStyle=orthogonalEdgeStyle;rounded=0;orthogonalLoop=1;jettySize=auto;html=1;" parent="uh2FKYv2l3oiZ6gad8Yb-1" source="uh2FKYv2l3oiZ6gad8Yb-6" target="A2aTkkkpEwi9YPG0wWU6-9" edge="1">
          <mxGeometry relative="1" as="geometry" />
        </mxCell>
        <mxCell id="uh2FKYv2l3oiZ6gad8Yb-6" value="i&amp;lt;b.lengh" style="rhombus;whiteSpace=wrap;html=1;" parent="uh2FKYv2l3oiZ6gad8Yb-1" vertex="1">
          <mxGeometry x="335" y="320" width="110" height="80" as="geometry" />
        </mxCell>
        <mxCell id="A2aTkkkpEwi9YPG0wWU6-3" value="" style="edgeStyle=orthogonalEdgeStyle;rounded=0;orthogonalLoop=1;jettySize=auto;html=1;" parent="uh2FKYv2l3oiZ6gad8Yb-1" source="A2aTkkkpEwi9YPG0wWU6-0" target="A2aTkkkpEwi9YPG0wWU6-2" edge="1">
          <mxGeometry relative="1" as="geometry" />
        </mxCell>
        <mxCell id="A2aTkkkpEwi9YPG0wWU6-5" value="" style="edgeStyle=orthogonalEdgeStyle;rounded=0;orthogonalLoop=1;jettySize=auto;html=1;" parent="uh2FKYv2l3oiZ6gad8Yb-1" source="A2aTkkkpEwi9YPG0wWU6-0" target="A2aTkkkpEwi9YPG0wWU6-4" edge="1">
          <mxGeometry relative="1" as="geometry" />
        </mxCell>
        <mxCell id="A2aTkkkpEwi9YPG0wWU6-13" value="&lt;b&gt;F&lt;/b&gt;" style="edgeLabel;html=1;align=center;verticalAlign=middle;resizable=0;points=[];" parent="A2aTkkkpEwi9YPG0wWU6-5" vertex="1" connectable="0">
          <mxGeometry x="-0.318" y="-15" relative="1" as="geometry">
            <mxPoint as="offset" />
          </mxGeometry>
        </mxCell>
        <mxCell id="A2aTkkkpEwi9YPG0wWU6-0" value="b[i]%==0" style="rhombus;whiteSpace=wrap;html=1;" parent="uh2FKYv2l3oiZ6gad8Yb-1" vertex="1">
          <mxGeometry x="540" y="320" width="110" height="80" as="geometry" />
        </mxCell>
        <mxCell id="A2aTkkkpEwi9YPG0wWU6-8" style="edgeStyle=orthogonalEdgeStyle;rounded=0;orthogonalLoop=1;jettySize=auto;html=1;" parent="uh2FKYv2l3oiZ6gad8Yb-1" source="A2aTkkkpEwi9YPG0wWU6-2" edge="1">
          <mxGeometry relative="1" as="geometry">
            <mxPoint x="400" y="240" as="targetPoint" />
            <Array as="points">
              <mxPoint x="780" y="240" />
            </Array>
          </mxGeometry>
        </mxCell>
        <mxCell id="A2aTkkkpEwi9YPG0wWU6-2" value="b=b+c[i}" style="whiteSpace=wrap;html=1;" parent="uh2FKYv2l3oiZ6gad8Yb-1" vertex="1">
          <mxGeometry x="720" y="330" width="120" height="60" as="geometry" />
        </mxCell>
        <mxCell id="A2aTkkkpEwi9YPG0wWU6-7" value="" style="edgeStyle=orthogonalEdgeStyle;rounded=0;orthogonalLoop=1;jettySize=auto;html=1;" parent="uh2FKYv2l3oiZ6gad8Yb-1" source="A2aTkkkpEwi9YPG0wWU6-4" target="A2aTkkkpEwi9YPG0wWU6-6" edge="1">
          <mxGeometry relative="1" as="geometry" />
        </mxCell>
        <mxCell id="A2aTkkkpEwi9YPG0wWU6-4" value="a=a+c[i}" style="whiteSpace=wrap;html=1;" parent="uh2FKYv2l3oiZ6gad8Yb-1" vertex="1">
          <mxGeometry x="542" y="250" width="105" height="40" as="geometry" />
        </mxCell>
        <mxCell id="A2aTkkkpEwi9YPG0wWU6-6" value="" style="shape=waypoint;size=6;pointerEvents=1;points=[];fillColor=#ffffff;resizable=0;rotatable=0;perimeter=centerPerimeter;snapToPoint=1;" parent="uh2FKYv2l3oiZ6gad8Yb-1" vertex="1">
          <mxGeometry x="380" y="250" width="40" height="40" as="geometry" />
        </mxCell>
        <mxCell id="A2aTkkkpEwi9YPG0wWU6-15" value="" style="edgeStyle=orthogonalEdgeStyle;rounded=0;orthogonalLoop=1;jettySize=auto;html=1;" parent="uh2FKYv2l3oiZ6gad8Yb-1" source="A2aTkkkpEwi9YPG0wWU6-9" target="A2aTkkkpEwi9YPG0wWU6-14" edge="1">
          <mxGeometry relative="1" as="geometry" />
        </mxCell>
        <mxCell id="A2aTkkkpEwi9YPG0wWU6-9" value="sum=a-b" style="whiteSpace=wrap;html=1;" parent="uh2FKYv2l3oiZ6gad8Yb-1" vertex="1">
          <mxGeometry x="330" y="490" width="120" height="60" as="geometry" />
        </mxCell>
        <mxCell id="A2aTkkkpEwi9YPG0wWU6-11" value="&lt;b&gt;T&lt;/b&gt;" style="text;html=1;align=center;verticalAlign=middle;resizable=0;points=[];autosize=1;strokeColor=none;" parent="uh2FKYv2l3oiZ6gad8Yb-1" vertex="1">
          <mxGeometry x="480" y="340" width="20" height="20" as="geometry" />
        </mxCell>
        <mxCell id="A2aTkkkpEwi9YPG0wWU6-12" value="&lt;b&gt;T&lt;/b&gt;" style="text;html=1;align=center;verticalAlign=middle;resizable=0;points=[];autosize=1;strokeColor=none;" parent="uh2FKYv2l3oiZ6gad8Yb-1" vertex="1">
          <mxGeometry x="670" y="340" width="20" height="20" as="geometry" />
        </mxCell>
        <mxCell id="A2aTkkkpEwi9YPG0wWU6-14" value="End" style="ellipse;whiteSpace=wrap;html=1;" parent="uh2FKYv2l3oiZ6gad8Yb-1" vertex="1">
          <mxGeometry x="330" y="630" width="120" height="60" as="geometry" />
        </mxCell>
      </root>
    </mxGraphModel>
  </diagram>
  <diagram id="AVj3PC9PvGqBM3GOnjjB" name="Page-3">
    <mxGraphModel dx="1038" dy="523" grid="1" gridSize="10" guides="1" tooltips="1" connect="1" arrows="1" fold="1" page="1" pageScale="1" pageWidth="850" pageHeight="1100" math="0" shadow="0">
      <root>
        <mxCell id="x860Na4ElK7nTrTxhTuA-0" />
        <mxCell id="x860Na4ElK7nTrTxhTuA-1" parent="x860Na4ElK7nTrTxhTuA-0" />
        <mxCell id="FS_JI1IoPRZK0dl6NmIB-4" value="" style="edgeStyle=orthogonalEdgeStyle;rounded=0;orthogonalLoop=1;jettySize=auto;html=1;" parent="x860Na4ElK7nTrTxhTuA-1" source="x860Na4ElK7nTrTxhTuA-3" target="FS_JI1IoPRZK0dl6NmIB-3" edge="1">
          <mxGeometry relative="1" as="geometry" />
        </mxCell>
        <mxCell id="x860Na4ElK7nTrTxhTuA-3" value="Start" style="ellipse;whiteSpace=wrap;html=1;" parent="x860Na4ElK7nTrTxhTuA-1" vertex="1">
          <mxGeometry x="360" y="40" width="120" height="80" as="geometry" />
        </mxCell>
        <mxCell id="FS_JI1IoPRZK0dl6NmIB-2" value="&lt;h1&gt;&lt;span style=&quot;color: rgb(36 , 41 , 46) ; font-size: 16px ; background-color: rgb(255 , 255 , 255)&quot;&gt;Array-i(minimum 5 element olsun) tərsinə çevirən(reverse) algorithmi qurun(Misal: [10, 45, 32, 48, 72] =&amp;gt; [72, 48, 32, 45, 10]);&lt;/span&gt;&lt;br&gt;&lt;/h1&gt;" style="text;html=1;strokeColor=none;fillColor=none;spacing=5;spacingTop=-20;whiteSpace=wrap;overflow=hidden;rounded=0;" parent="x860Na4ElK7nTrTxhTuA-1" vertex="1">
          <mxGeometry x="30" y="30" width="250" height="120" as="geometry" />
        </mxCell>
        <mxCell id="FS_JI1IoPRZK0dl6NmIB-6" value="" style="edgeStyle=orthogonalEdgeStyle;rounded=0;orthogonalLoop=1;jettySize=auto;html=1;" parent="x860Na4ElK7nTrTxhTuA-1" source="FS_JI1IoPRZK0dl6NmIB-3" target="FS_JI1IoPRZK0dl6NmIB-5" edge="1">
          <mxGeometry relative="1" as="geometry" />
        </mxCell>
        <mxCell id="FS_JI1IoPRZK0dl6NmIB-3" value="b={10,45,32,48,72}&lt;br&gt;i=b.leng-1&lt;br&gt;a[]" style="shape=parallelogram;perimeter=parallelogramPerimeter;whiteSpace=wrap;html=1;fixedSize=1;" parent="x860Na4ElK7nTrTxhTuA-1" vertex="1">
          <mxGeometry x="340" y="160" width="160" height="100" as="geometry" />
        </mxCell>
        <mxCell id="FS_JI1IoPRZK0dl6NmIB-8" value="" style="edgeStyle=orthogonalEdgeStyle;rounded=0;orthogonalLoop=1;jettySize=auto;html=1;" parent="x860Na4ElK7nTrTxhTuA-1" source="FS_JI1IoPRZK0dl6NmIB-5" target="FS_JI1IoPRZK0dl6NmIB-7" edge="1">
          <mxGeometry relative="1" as="geometry" />
        </mxCell>
        <mxCell id="FS_JI1IoPRZK0dl6NmIB-12" value="" style="edgeStyle=orthogonalEdgeStyle;rounded=0;orthogonalLoop=1;jettySize=auto;html=1;" parent="x860Na4ElK7nTrTxhTuA-1" source="FS_JI1IoPRZK0dl6NmIB-5" target="FS_JI1IoPRZK0dl6NmIB-11" edge="1">
          <mxGeometry relative="1" as="geometry" />
        </mxCell>
        <mxCell id="FS_JI1IoPRZK0dl6NmIB-5" value="i&amp;gt;0" style="rhombus;whiteSpace=wrap;html=1;" parent="x860Na4ElK7nTrTxhTuA-1" vertex="1">
          <mxGeometry x="380" y="350" width="80" height="80" as="geometry" />
        </mxCell>
        <mxCell id="FS_JI1IoPRZK0dl6NmIB-10" style="edgeStyle=orthogonalEdgeStyle;rounded=0;orthogonalLoop=1;jettySize=auto;html=1;" parent="x860Na4ElK7nTrTxhTuA-1" source="FS_JI1IoPRZK0dl6NmIB-7" edge="1">
          <mxGeometry relative="1" as="geometry">
            <mxPoint x="430" y="320" as="targetPoint" />
            <Array as="points">
              <mxPoint x="680" y="320" />
            </Array>
          </mxGeometry>
        </mxCell>
        <mxCell id="FS_JI1IoPRZK0dl6NmIB-7" value="a.push.(b[])" style="whiteSpace=wrap;html=1;" parent="x860Na4ElK7nTrTxhTuA-1" vertex="1">
          <mxGeometry x="620" y="360" width="120" height="60" as="geometry" />
        </mxCell>
        <mxCell id="FS_JI1IoPRZK0dl6NmIB-14" value="" style="edgeStyle=orthogonalEdgeStyle;rounded=0;orthogonalLoop=1;jettySize=auto;html=1;" parent="x860Na4ElK7nTrTxhTuA-1" source="FS_JI1IoPRZK0dl6NmIB-11" target="FS_JI1IoPRZK0dl6NmIB-13" edge="1">
          <mxGeometry relative="1" as="geometry" />
        </mxCell>
        <mxCell id="FS_JI1IoPRZK0dl6NmIB-11" value="print a" style="shape=parallelogram;perimeter=parallelogramPerimeter;whiteSpace=wrap;html=1;fixedSize=1;" parent="x860Na4ElK7nTrTxhTuA-1" vertex="1">
          <mxGeometry x="360" y="500" width="120" height="60" as="geometry" />
        </mxCell>
        <mxCell id="FS_JI1IoPRZK0dl6NmIB-13" value="End" style="ellipse;whiteSpace=wrap;html=1;" parent="x860Na4ElK7nTrTxhTuA-1" vertex="1">
          <mxGeometry x="360" y="640" width="120" height="60" as="geometry" />
        </mxCell>
        <mxCell id="bqJERqwQFdmk8Uf1NZCn-0" value="&lt;b&gt;True&lt;/b&gt;" style="text;html=1;align=center;verticalAlign=middle;resizable=0;points=[];autosize=1;strokeColor=none;" vertex="1" parent="x860Na4ElK7nTrTxhTuA-1">
          <mxGeometry x="500" y="370" width="40" height="20" as="geometry" />
        </mxCell>
      </root>
    </mxGraphModel>
  </diagram>
</mxfile>
